<svg xmlns="http://www.w3.org/2000/svg" data-name="S_SDKMarkObjectTool_Lg_N@2x" height="36" id="S_SDKMarkObjectTool_Lg_N_2x" viewBox="0 0 44 36" width="44">
  <defs>
    <style>
      .fill {
        opacity: 0.65;
      }

      
    </style>
  </defs>
  <title>S_SDKMarkObjectTool_Lg_N@2x</title>
  <path class="fill" d="M32.3,28.644c.225.225.375.525,0,.826l-4.654,3c-.375.225-.525.075-.675-.3l-5.78-10.059L13.6,30.445c-.075.151-.3.3-.525,0l-3.6-3.753c-.375-.225-.3-.451,0-.675l8.558-7.132L8.275,15.207c-.151,0-.376-.3-.225-.675l2.551-5.1a.4.4,0,0,1,.676-.151l8.557,5.555.526-10.96a.4.4,0,0,1,.45-.45l6.23.826c.375,0,.451.151.375.525L24.488,15.507l9.909-3c.225-.15.45-.15.6.3l.976,5.554c.075.376,0,.525-.3.525l-10.359.826Z" />
  </svg>