<svg xmlns="http://www.w3.org/2000/svg" data-name="S_SDKAnnotatorTool_Lg_N@2x" height="36" id="S_SDKAnnotatorTool_Lg_N_2x" viewBox="0 0 44 36" width="44">
  <defs>
    <style>
      .fill {
        opacity: 0.65;
      }

      
    </style>
  </defs>
  <title>S_SDKAnnotatorTool_Lg_N@2x</title>
  <path class="fill" d="M34,2H22a4,4,0,0,0-4,4V18L6.1,33.2a.5.5,0,0,0,.624.747L18,28v2a4,4,0,0,0,4,4H34a4,4,0,0,0,4-4V6A4,4,0,0,0,34,2ZM28,6a2.857,2.857,0,0,1,3,2.979A2.8,2.8,0,0,1,28,12a2.843,2.843,0,0,1-3-3.021A2.856,2.856,0,0,1,28,6Zm4,21a1,1,0,0,1-1,1H25a1,1,0,0,1-1-1V25a1,1,0,0,1,1-1h1V18H25a1,1,0,0,1-1-1V15a1,1,0,0,1,1-1h4a1,1,0,0,1,1,1v9h1a1,1,0,0,1,1,1Z" />
  </svg>