<svg xmlns="http://www.w3.org/2000/svg" data-name="S_SDKHeadArrowTool_Lg_N@2x" height="36" id="S_SDKHeadArrowTool_Lg_N_2x" viewBox="0 0 44 36" width="44">
  <defs>
    <style>
      .fill {
        opacity: 0.65;
      }

      
    </style>
  </defs>
  <title>S_SDKHeadArrowTool_Lg_N@2x</title>
  <path class="fill" d="M37.153,32.535c-1.774-3.758-2.819-10.4-3.52-15.172a.5.5,0,0,0-.834-.216l-4.765,4.765L9.414,3.293a.5.5,0,0,0-.707,0L7.293,4.707a.5.5,0,0,0,0,.707L25.912,24.033,21.347,28.6a.5.5,0,0,0,.216.834c4.77.7,11.214,1.946,14.972,3.72A.5.5,0,0,0,37.153,32.535Z" />
  </svg>