<svg xmlns="http://www.w3.org/2000/svg" data-name="S_SDKTailArrowTool_Lg_N@2x" height="36" id="S_SDKTailArrowTool_Lg_N_2x" viewBox="0 0 44 36" width="44">
  <defs>
    <style>
      .fill {
        opacity: 0.65;
      }

      
    </style>
  </defs>
  <title>S_SDKTailArrowTool_Lg_N@2x</title>
  <path class="fill" d="M36.707,30.586,18.088,11.967,22.653,7.4a.5.5,0,0,0-.216-.834c-4.77-.7-11.214-1.946-14.972-3.72a.5.5,0,0,0-.618.618c1.774,3.758,2.819,10.4,3.52,15.172a.5.5,0,0,0,.834.216l4.766-4.765L34.586,32.707a.5.5,0,0,0,.707,0l1.414-1.414A.5.5,0,0,0,36.707,30.586Z" />
  </svg>